<svg width="284" height="40" viewBox="0 0 284 40" fill="none" xmlns="http://www.w3.org/2000/svg">
<path d="M39.4723 8.63158C39.4723 6.84211 39.6834 2.21053 40 0.526316C40 0.421053 40 0.31579 39.8945 0.31579C39.7889 0.210526 39.7889 0.210526 39.6834 0.210526C37.6781 0.526316 34.3008 0.631579 32.6121 0.631579H6.54354C5.06596 0.631579 3.58839 0.526316 2.21636 0.421053C1.37203 0.210526 0.738786 0.105263 0.316623 0C0.316623 0 0.211082 0 0.105541 0.105263C0 0.105263 0 0.210526 0 0.31579C0.105541 0.631579 0.105541 1.15789 0.211082 1.89474C0.316623 3.26316 0.422164 4.63158 0.422164 6.10526V33.6842C0.422164 35.0526 0.211082 38.3158 0 39.6842C0 39.7895 0 39.8947 0.105541 40C0.211082 40 0.316623 40 0.422164 40C1.89974 39.5789 4.01055 39.3684 5.38259 39.3684H33.4565C35.0396 39.3684 38.1003 39.5789 39.5778 40C39.5778 40 39.5778 40 39.6834 40C39.7889 40 39.7889 40 39.8945 39.8947C40 39.7895 40 39.6842 40 39.5789C39.6834 38.3158 39.4723 36 39.4723 34.5263V8.63158ZM12.3483 37.6842H3.27177C2.74406 37.6842 2.3219 37.2632 2.3219 36.7368V27.7895C3.27177 29.8947 4.6438 31.8947 6.22691 33.5789C8.12665 35.5789 10.5541 36.8421 12.3483 37.6842ZM19.1029 10.6316C19.1029 11.5789 18.7863 12.6316 18.153 13.4737C17.6253 14.2105 16.9921 15.0526 16.4644 16.1053C16.1478 15.2632 15.9367 14.4211 15.7256 13.5789C15.7256 13.4737 14.0369 7.05263 13.5092 4.42105V4.31579C13.4037 3.68421 13.1926 3.05263 13.1926 2.31579L18.9974 2.21053C19.1029 2.31579 19.314 2.84211 19.314 4C19.2084 5.57895 19.1029 10.6316 19.1029 10.6316ZM5.38259 7.89474C5.69921 7.68421 5.80475 7.57895 5.91029 7.57895C6.12137 7.36842 6.22691 7.36842 6.33245 7.26316C6.33245 7.26316 6.43799 7.26316 6.54354 7.1579L6.75462 6.84211H6.64908C6.64908 6.84211 5.06596 5.1579 4.43272 4.10526C4.01055 3.47368 3.79947 2.84211 3.69393 2.42105L11.1873 2.31579C11.6095 3.1579 11.8206 4 11.9261 4.73684L14.0369 13.6842C14.1425 14.2105 14.248 14.6316 14.3536 15.1579L14.7757 16.8421C12.3483 15.3684 10.7652 14.7368 10.7652 14.7368C10.5541 14.6316 9.70976 14.4211 9.70976 14.4211L9.39314 14.6316L9.18206 15.2632C9.18206 15.2632 8.54881 17.5789 8.44327 20.8421C5.80475 19.8947 3.27177 19.5789 2.21636 19.4737L2.3219 3.68421C2.63852 3.89474 3.16623 4.31579 3.58839 4.94737C4.22164 5.89474 4.6438 6.94737 4.85488 7.47368C4.96042 7.57895 4.96042 7.78947 4.96042 7.78947L5.38259 7.89474ZM2.53298 21.0526C2.53298 21.0526 2.63852 20.9474 2.74406 20.9474C4.43272 21.0526 8.86544 21.2632 12.9815 25.2632C13.6148 25.8947 13.7203 27.1579 13.8259 27.6842C14.1425 32.1053 16.3588 35.7895 17.6253 37.5789V37.6842L17.5198 37.7895C16.2533 37.579 11.6095 36.6316 7.4934 32.3158C3.37731 28 2.53298 23.7895 2.42744 21.5789C2.42744 21.3684 2.42744 21.1579 2.53298 21.0526ZM10.2375 21.3684C10.0264 19.6842 10.0264 16.8421 10.1319 16.1053C10.1319 15.8947 10.1319 15.7895 10.2375 15.7895C10.2375 15.7895 10.343 15.7895 10.6596 15.8947C11.715 16.4211 13.5092 17.4737 15.1979 18.7368C14.6702 20.2105 14.1425 22 13.9314 23.5789C12.7704 22.7368 11.6095 22 10.2375 21.3684ZM15.1979 25.6842C15.1979 20.8421 18.153 16.2105 19.8417 14L19.9472 13.8947C20.0528 13.8947 20.0528 13.8947 20.1583 14C21.9525 16.3158 24.9077 20.9474 24.9077 25.6842C24.9077 30.8421 21.5303 35.2632 20.2639 36.9474C20.1583 37.0526 20.1583 37.0526 20.0528 37.0526C19.9472 37.0526 19.8417 37.0526 19.8417 36.9474C18.5752 35.4737 15.1979 30.9474 15.1979 25.6842ZM26.5963 3.15789C26.4908 3.78947 26.2797 4.63158 26.2797 4.63158V4.73684L26.3852 4.94737C26.8074 5.05263 26.9129 5.05263 27.0185 5.05263H27.124C27.3351 5.05263 27.4406 5.05263 27.6517 5.1579L27.9683 5.05263L28.0739 3.89474C28.0739 3.36842 28.1794 2.84211 28.285 2.31579H36.5172C36.3061 3.05263 35.7784 3.89474 35.4617 4.52632C33.7731 7.47368 30.7124 12.1053 29.657 13.6842C29.3404 14.2105 28.6016 14.8421 28.0739 15.0526C27.3351 15.3684 26.0686 16 24.9077 16.7368C25.0132 16.3158 25.1187 15.5789 25.3298 14.9474C25.5409 14.4211 25.8575 13.3684 25.8575 13.3684V13.2632L25.6464 13.0526C25.0132 12.9474 24.4855 12.8421 24.4855 12.8421L24.1689 12.9474V13.0526C24.1689 13.0526 24.1689 14.1053 24.0633 14.3158C24.0633 14.7368 23.8522 15.5789 23.6412 16.4211C23.0079 15.2632 22.1636 14.2105 21.7414 13.5789V13.4737C21.1082 12.6316 20.7916 11.5789 20.7916 10.6316L20.5805 4.21053C20.5805 3.47368 20.686 2.73684 20.8971 2.31579H26.5963C26.7018 2.52632 26.5963 2.94737 26.5963 3.15789ZM31.1346 14.4211C32.9288 11.1579 34.5119 8.52632 36.3061 6C36.8338 5.26316 37.3615 4.63158 37.6781 4.31579V19.2632C36.6227 19.3684 33.9842 19.6842 31.2401 20.7368C31.2401 19.0526 31.029 17.4737 30.8179 16.5263C30.7124 15.8947 30.8179 15.0526 31.1346 14.4211ZM29.0237 15.8947C29.1293 15.7895 29.3404 15.7895 29.3404 15.7895C29.3404 15.7895 29.4459 15.8947 29.4459 16.2105C29.5515 17.4737 29.5515 19.5789 29.3404 21.3684C28.0739 22 26.9129 22.6316 25.9631 23.4737C25.752 21.8947 25.3298 20.2105 24.6966 18.7368C26.2797 17.4737 28.0739 16.4211 29.0237 15.8947ZM37.5726 21.2632C37.5726 23.4737 36.9393 27.6842 32.6121 32.2105C28.285 36.6316 23.4301 37.5789 22.4802 37.6842C22.3747 37.6842 22.3747 37.6842 22.3747 37.5789C22.3747 37.5789 22.3747 37.4737 22.3747 37.3684C24.8021 33.7895 26.0686 30.4211 26.2797 27.0526C26.2797 26.5263 26.4908 25.6842 27.0185 25.1579C30.0792 21.5789 35.3562 20.9474 36.9393 20.7368H37.0449C37.1504 20.7368 37.3615 20.7368 37.467 20.8421C37.467 20.9474 37.5726 21.1579 37.5726 21.2632ZM37.6781 27.7895V36.7368C37.6781 37.2632 37.2559 37.6842 36.7282 37.6842H27.4406C29.9736 36.6316 32.19 35.1579 33.8786 33.4737C35.4617 31.7895 36.7282 29.8947 37.6781 27.7895Z" fill="#66A9CB"/>
<path d="M26.2789 11.3669C25.0124 11.3669 23.957 10.3143 23.957 9.05114C23.957 7.78798 25.0124 6.73535 26.2789 6.73535C27.5454 6.73535 28.6008 7.78798 28.6008 9.05114C28.4953 10.3143 27.5454 11.3669 26.2789 11.3669ZM26.2789 7.78798C25.5401 7.78798 25.0124 8.3143 25.0124 9.05114C25.0124 9.78798 25.5401 10.3143 26.2789 10.3143C27.0177 10.3143 27.5454 9.78798 27.5454 9.05114C27.5454 8.3143 26.9122 7.78798 26.2789 7.78798Z" fill="#66A9CB"/>
<path d="M10.4484 11.0531C9.49853 11.2637 8.54866 12.211 8.33758 13.1584C8.33758 13.2637 8.23204 13.2637 8.23204 13.1584C8.02096 12.211 6.96555 11.1584 6.01568 11.0531C5.91014 11.0531 5.91014 11.0531 6.01568 11.0531C6.96555 10.8426 8.02096 9.89525 8.23204 8.84262C8.23204 8.73736 8.33758 8.73736 8.33758 8.84262C8.54866 9.78999 9.49853 10.7374 10.4484 10.9479C10.5539 10.9479 10.5539 10.9479 10.4484 11.0531Z" fill="#66A9CB"/>
<path d="M56.5988 10.6348C57.3367 10.6348 58.1976 10.6348 59.3045 10.6348C60.4114 10.6348 61.2723 10.6348 62.0102 10.6348C63.486 10.6348 64.9619 10.862 66.3147 11.4302C67.6676 11.9984 68.8974 12.6802 69.8813 13.5893C70.8652 14.4984 71.6031 15.5211 72.2181 16.771C72.833 18.021 73.079 19.271 73.079 20.6346C73.079 21.6573 72.956 22.5664 72.71 23.4755C72.464 24.3846 72.2181 25.0664 71.7261 25.7482C71.2342 26.43 70.8652 26.8846 70.2503 27.4527C69.6354 27.9073 69.1434 28.3618 68.5285 28.7027C67.9135 29.0436 67.2986 29.2709 66.5607 29.4982C65.8228 29.7254 65.2079 29.8391 64.4699 29.9527C63.855 30.0663 63.1171 30.0663 62.5022 30.0663C61.2723 30.0663 60.1654 30.0663 59.1815 30.0663C58.1976 30.0663 57.3367 30.0663 56.5988 30.0663C56.2299 30.0663 55.9839 30.0663 55.7379 30.0663C55.4919 30.0663 55.246 30.0663 55.123 30.0663H55V29.9527C55.246 28.5891 55.369 26.6573 55.369 24.0437V16.771C55.369 14.1574 55.246 12.2257 55 10.862L55.123 10.7484C55.246 10.6348 55.8609 10.6348 56.5988 10.6348ZM57.9517 27.4527C57.9517 27.7936 58.0747 28.0209 58.1976 28.2482C58.3206 28.3618 58.6896 28.4754 59.1815 28.5891C59.6735 28.7027 60.4114 28.7027 61.5183 28.7027C62.2562 28.7027 62.8711 28.7027 63.3631 28.5891C63.978 28.5891 64.4699 28.4754 65.0849 28.2482C65.6998 28.1345 66.1917 27.9073 66.6837 27.68C67.1756 27.4527 67.5446 27.1118 67.9135 26.7709C68.2825 26.43 68.6515 25.9755 68.8974 25.5209C69.1434 25.0664 69.3894 24.3846 69.5124 23.7028C69.6354 23.021 69.7583 22.2255 69.7583 21.4301C69.7583 20.4074 69.6354 19.4983 69.5124 18.7028C69.3894 17.7938 69.0204 16.9983 68.5285 16.0892C68.0365 15.2938 67.5446 14.4984 66.8067 13.9302C66.1917 13.362 65.2079 12.7938 64.224 12.4529C63.1171 12.112 62.0102 11.8847 60.6574 11.8847C60.1654 11.8847 59.7965 11.8847 59.5505 11.8847C59.3045 11.8847 58.9356 11.9984 58.6896 11.9984C58.4436 12.112 58.1976 12.2257 58.0747 12.3393C57.9517 12.4529 57.8287 12.6802 57.8287 13.0211V27.4527H57.9517Z" fill="#8A9199"/>
<path d="M78.8611 16.6574C78.8611 14.0438 78.7382 12.112 78.4922 10.7484L78.6152 10.6348C78.9841 10.7484 79.5991 10.7484 80.214 10.7484C80.8289 10.7484 81.4438 10.7484 81.8128 10.6348L81.9358 10.7484C81.6898 12.112 81.5668 14.1574 81.5668 16.6574V23.93C81.5668 26.43 81.6898 28.3618 81.9358 29.8391L81.8128 29.9527C81.4438 29.8391 80.8289 29.8391 80.214 29.8391C79.5991 29.8391 78.9841 29.8391 78.6152 29.9527L78.4922 29.8391C78.7382 28.4754 78.8611 26.5436 78.8611 23.93V16.6574Z" fill="#8A9199"/>
<path d="M91.5257 23.1334C90.1729 26.0879 89.312 28.3606 88.82 30.0651C88.574 29.9514 88.0821 29.9514 87.3442 29.9514C86.8522 29.9514 86.4833 29.9514 86.2373 30.0651L95.7072 10.4062H96.5681L99.6428 17.4516L103.209 25.406C104.193 27.6787 104.931 29.156 105.423 30.0651C105.054 29.9514 104.439 29.9514 103.455 29.9514C102.717 29.9514 102.225 29.9514 101.857 30.0651C101.365 28.4742 100.504 26.0879 99.3968 23.1334C98.167 23.1334 96.9371 23.1334 95.5842 23.1334C94.2314 23.1334 92.7556 23.1334 91.5257 23.1334ZM98.9049 21.7697C97.921 19.2698 96.8141 16.8834 95.5842 14.3835H95.4613L92.2636 21.7697C92.5096 21.7697 93.0015 21.7697 93.8624 21.7697C94.7233 21.7697 95.3383 21.7697 95.7072 21.7697C96.8141 21.7697 97.921 21.7697 98.9049 21.7697Z" fill="#8A9199"/>
<path d="M113.171 10.1797H114.032C114.646 11.4297 115.876 13.816 117.475 17.225C119.074 20.6341 120.427 23.3613 121.534 25.2931L129.774 10.1797H130.512C131.496 17.6796 132.357 24.2704 133.217 29.9522C132.848 29.8385 132.357 29.8385 131.496 29.8385C130.758 29.8385 130.266 29.8385 129.897 29.9522C129.282 23.7022 128.913 19.0432 128.421 15.7478H128.298C125.469 20.5205 123.01 25.1795 120.796 29.8385H120.181C119.566 28.5885 118.459 26.3158 116.983 23.1341C115.507 19.9523 114.278 17.4523 113.294 15.6342H113.171C112.925 17.225 112.433 19.725 111.941 23.2477C111.326 26.7704 110.957 28.9294 110.834 29.9522C110.588 29.8385 110.219 29.8385 109.85 29.8385C109.358 29.8385 108.989 29.8385 108.743 29.9522C110.711 22.4523 112.064 15.8614 113.171 10.1797Z" fill="#8A9199"/>
<path d="M158.432 20.1788C158.432 22.1106 158.063 23.9288 157.202 25.4061C156.342 26.8833 155.112 28.1333 153.513 28.9287C151.914 29.7242 150.192 30.1787 148.101 30.1787C146.257 30.1787 144.535 29.8378 143.059 29.0424C141.46 28.2469 140.23 27.2242 139.369 25.747C138.386 24.2697 138.017 22.5652 138.017 20.747C138.017 18.8152 138.509 17.1107 139.369 15.5198C140.23 13.9289 141.46 12.6789 143.059 11.7699C144.658 10.8608 146.38 10.4062 148.224 10.4062C150.192 10.4062 151.914 10.8608 153.513 11.6562C155.112 12.4517 156.342 13.588 157.202 15.0653C158.063 16.5425 158.432 18.2471 158.432 20.1788ZM147.733 11.6562C147.118 11.6562 146.503 11.7699 145.888 11.8835C145.273 12.1108 144.658 12.338 144.166 12.7926C143.551 13.2471 143.059 13.8153 142.69 14.3835C142.321 15.0653 141.952 15.8607 141.706 16.7698C141.46 17.7925 141.337 18.8152 141.337 20.0652C141.337 21.4288 141.583 22.6788 141.952 23.8152C142.321 24.9515 142.936 25.8606 143.674 26.5424C144.412 27.2242 145.15 27.7924 146.134 28.1333C146.995 28.4742 147.978 28.7015 148.962 28.7015C150.807 28.7015 152.406 28.0197 153.513 26.5424C154.743 25.0651 155.235 23.1334 155.235 20.5198C155.235 17.4516 154.62 15.2925 153.267 13.7017C151.914 12.4517 150.069 11.6562 147.733 11.6562Z" fill="#8A9199"/>
<path d="M164.458 10.7468C164.704 10.7468 165.196 10.7468 165.934 10.7468L166.426 10.6332L177.494 23.8148C178.232 24.7239 178.724 25.1784 178.847 25.2921C179.093 25.5193 179.339 25.4057 179.339 25.0648C179.339 24.9512 179.339 24.7239 179.339 24.4966V16.5422C179.339 13.9286 179.216 11.9968 178.97 10.6332L179.093 10.5195C179.462 10.6332 179.831 10.6332 180.2 10.6332C180.569 10.6332 180.938 10.6332 181.307 10.5195L181.43 10.6332C181.307 12.2241 181.184 13.8149 181.184 15.5195C181.061 17.224 181.061 18.5876 181.061 19.724C181.061 20.8603 180.938 22.4512 180.938 24.4966C180.938 26.542 180.815 28.1329 180.815 29.1556C180.815 29.7238 180.569 30.0647 180.2 30.0647C179.708 30.0647 179.216 29.8375 178.847 29.3829L167.656 16.2013L167.164 15.6331C167.041 15.5195 166.918 15.4058 166.795 15.2922C166.672 15.1786 166.672 15.1786 166.549 15.1786C166.549 15.1786 166.426 15.2922 166.426 15.4058C166.426 15.5195 166.426 15.7467 166.426 15.8604C166.426 16.0876 166.426 16.3149 166.426 16.6558V23.8148C166.426 26.4284 166.549 28.3602 166.795 29.7238L166.672 29.8375C166.303 29.7238 165.934 29.7238 165.565 29.7238C165.196 29.7238 164.827 29.7238 164.458 29.8375L164.335 29.7238C164.581 27.4511 164.704 24.383 164.827 20.5194C164.581 16.7694 164.581 13.474 164.458 10.7468Z" fill="#8A9199"/>
<path d="M189.79 10.6348C190.528 10.6348 191.389 10.6348 192.496 10.6348C193.603 10.6348 194.464 10.6348 195.202 10.6348C196.677 10.6348 198.153 10.862 199.506 11.4302C200.859 11.9984 202.089 12.6802 203.073 13.5893C204.057 14.4984 204.794 15.5211 205.409 16.771C206.024 18.021 206.27 19.271 206.27 20.6346C206.27 21.6573 206.147 22.5664 205.901 23.4755C205.655 24.3846 205.409 25.0664 204.917 25.7482C204.426 26.43 204.057 26.8846 203.442 27.4527C202.827 27.9073 202.335 28.3618 201.72 28.7027C201.105 29.0436 200.49 29.2709 199.752 29.4982C199.014 29.7254 198.399 29.8391 197.661 29.9527C197.046 30.0663 196.308 30.0663 195.694 30.0663C194.464 30.0663 193.357 30.0663 192.373 30.0663C191.389 30.0663 190.528 30.0663 189.79 30.0663C189.421 30.0663 189.175 30.0663 188.929 30.0663C188.683 30.0663 188.437 30.0663 188.314 30.0663H188.191V29.9527C188.437 28.5891 188.56 26.6573 188.56 24.0437V16.771C188.56 14.1574 188.437 12.2257 188.191 10.862L188.314 10.7484C188.56 10.6348 189.052 10.6348 189.79 10.6348ZM191.266 27.4527C191.266 27.7936 191.389 28.0209 191.512 28.2482C191.635 28.3618 192.004 28.4754 192.496 28.5891C192.988 28.7027 193.726 28.7027 194.833 28.7027C195.571 28.7027 196.185 28.7027 196.677 28.5891C197.292 28.5891 197.784 28.4754 198.399 28.2482C199.014 28.1345 199.506 27.9073 199.998 27.68C200.49 27.4527 200.859 27.1118 201.228 26.7709C201.597 26.43 201.966 25.9755 202.212 25.5209C202.458 25.0664 202.704 24.3846 202.827 23.7028C202.95 23.021 203.073 22.2255 203.073 21.4301C203.073 20.4074 202.95 19.4983 202.827 18.7028C202.704 17.7938 202.335 16.9983 201.843 16.0892C201.351 15.2938 200.859 14.4984 200.121 13.9302C199.506 13.362 198.522 12.7938 197.538 12.4529C196.431 12.112 195.325 11.8847 193.972 11.8847C193.48 11.8847 193.111 11.8847 192.865 11.8847C192.619 11.8847 192.25 11.9984 192.004 11.9984C191.758 12.112 191.512 12.2257 191.389 12.3393C191.266 12.4529 191.143 12.6802 191.143 13.0211V27.4527H191.266Z" fill="#8A9199"/>
<path d="M215.004 16.6574V23.93C215.004 26.0891 215.127 27.4527 215.25 28.0209C216.48 28.0209 217.956 28.0209 219.432 27.9073C220.908 27.7936 222.138 27.68 222.998 27.5664L224.351 27.4527L224.474 27.5664C224.474 27.9073 224.351 28.2482 224.351 28.5891C224.351 28.93 224.351 29.3845 224.474 29.9527L224.351 30.0663C223.859 30.0663 223.244 29.9527 222.384 29.9527H213.529C213.16 29.9527 212.914 29.9527 212.668 29.9527C212.422 29.9527 212.176 29.9527 212.053 29.9527H211.93V29.8391C212.176 28.4754 212.299 26.5436 212.299 23.93V16.6574C212.299 14.0438 212.176 12.112 211.93 10.7484L212.053 10.6348C212.422 10.7484 213.037 10.7484 213.651 10.7484C214.389 10.7484 214.881 10.7484 215.373 10.6348V10.7484C215.004 12.112 215.004 14.0438 215.004 16.6574Z" fill="#8A9199"/>
<path d="M231.975 23.1334C230.622 26.0879 229.761 28.3606 229.269 30.0651C229.023 29.9514 228.531 29.9514 227.793 29.9514C227.301 29.9514 226.932 29.9514 226.687 30.0651L236.156 10.4062H237.017L240.092 17.4516L243.659 25.406C244.642 27.6787 245.38 29.156 245.872 30.0651C245.503 29.9514 244.888 29.9514 243.905 29.9514C243.167 29.9514 242.675 29.9514 242.306 30.0651C241.814 28.4742 240.953 26.0879 239.846 23.1334C238.616 23.1334 237.386 23.1334 236.033 23.1334C234.558 23.1334 233.205 23.1334 231.975 23.1334ZM239.354 21.7697C238.37 19.2698 237.263 16.8834 236.033 14.3835H235.91L232.467 21.7697C232.713 21.7697 233.205 21.7697 234.066 21.7697C234.927 21.7697 235.542 21.7697 235.91 21.7697C237.14 21.7697 238.247 21.7697 239.354 21.7697Z" fill="#8A9199"/>
<path d="M250.671 16.6574C250.671 14.0438 250.548 12.112 250.302 10.7484L250.425 10.6348C250.794 10.7484 251.409 10.7484 252.024 10.7484C252.761 10.7484 253.253 10.7484 253.622 10.6348L253.745 10.7484C253.499 12.112 253.376 14.1574 253.376 16.6574V19.6119C253.622 19.6119 253.868 19.4983 254.114 19.3847C256.697 17.3392 259.772 14.3847 263.338 10.6348C263.584 10.7484 264.199 10.7484 264.937 10.7484C265.675 10.7484 266.29 10.7484 266.536 10.6348L261.125 15.1802C259.157 16.8847 257.804 18.2483 256.697 19.3847V19.4983L266.782 30.0663C266.413 29.9527 265.675 29.9527 264.814 29.9527C263.83 29.9527 263.215 29.9527 262.846 30.0663C258.173 24.7255 255.221 21.5437 253.991 20.4074C253.868 20.2937 253.622 20.1801 253.376 20.1801V24.0437C253.376 26.5436 253.499 28.4754 253.745 29.9527L253.622 30.0663C253.253 29.9527 252.638 29.9527 252.024 29.9527C251.286 29.9527 250.794 29.9527 250.425 30.0663L250.302 29.9527C250.548 28.5891 250.671 26.6573 250.671 24.0437V16.6574Z" fill="#8A9199"/>
<path d="M274.532 23.9288C274.532 26.2015 274.655 27.5651 274.778 28.1333C276.008 28.1333 277.483 28.1333 278.959 28.1333C280.435 28.1333 281.665 28.1333 282.526 28.0196L283.879 27.906L284.002 28.0196C284.002 28.3606 283.879 28.7015 283.879 29.0424C283.879 29.0424 283.879 29.3833 284.002 29.9514L283.879 30.0651C283.387 30.0651 282.772 29.9514 281.911 29.9514H273.056C272.687 29.9514 272.441 29.9514 272.195 29.9514C271.949 29.9514 271.703 29.9514 271.58 29.9514H271.457V29.8378C271.703 28.4742 271.826 26.5424 271.826 23.8152V16.5425C271.826 13.9289 271.703 11.9971 271.457 10.5199L271.58 10.4062C271.949 10.5199 272.441 10.5199 273.179 10.5199H281.665C282.403 10.5199 283.141 10.5199 283.633 10.4062L283.756 10.5199C283.756 11.0881 283.633 11.429 283.633 11.6562C283.633 11.8835 283.633 12.1108 283.756 12.4517L283.51 12.6789C280.558 12.4517 277.606 12.338 274.778 12.338C274.655 12.9062 274.532 14.3835 274.532 16.6562V18.9289C276.745 18.9289 279.205 18.8152 281.788 18.588L281.911 18.7016C281.788 18.9289 281.788 19.2698 281.788 19.6107C281.788 19.9516 281.788 20.2925 281.911 20.5197L281.788 20.6334C279.697 20.4061 277.237 20.2925 274.532 20.2925V23.9288Z" fill="#8A9199"/>
</svg>
